<?xml version="1.0" encoding="UTF-8" standalone="no"?>
<svg
   viewBox="0 0 262144 262144"
   version="1.1"
   id="svg3"
   xml:space="preserve"
   width="262144"
   height="262144"
   xmlns="http://www.w3.org/2000/svg"
   xmlns:svg="http://www.w3.org/2000/svg"><defs
     id="defs2" /><!-- Background --><!-- White circle --><rect
     width="512"
     height="512"
     rx="114"
     fill="url(#brandOrange)"
     id="rect37"
     style="display:inline;fill:#ff5f2a;fill-opacity:1"
     x="0"
     y="0" /><!-- Play triangle --><path
     d="m 260.00391,78.664062 -5.0293,0.0293 C 157.49884,79.25662 78.661173,158.52066 78.623047,255.99805 V 256 C 78.623041,353.90336 158.09664,433.37696 256,433.37695 353.90336,433.37696 433.37696,353.90336 433.37695,256 v -0.0606 l -0.002,-0.0605 c -0.004,-0.1829 -0.009,-0.36595 -0.0137,-0.54883 l -0.13281,-4.86328 h -9.72657 c 0.0598,1.84119 0.14064,3.67746 0.14063,5.5332 C 423.64308,348.58665 348.58665,423.64308 256,423.64258 163.41335,423.64308 88.356925,348.58665 88.357422,256 88.356925,163.41335 163.41335,88.356925 256,88.357422 c 1.34284,-7e-6 2.66861,0.07017 4.00391,0.101562 z"
     style="fill:#ffffff"
     id="path2" /><path
     d="M 244.51367,88.792969 C 157.29068,94.701395 88.356947,167.27843 88.357422,256 88.356926,348.58664 163.41336,423.64307 256,423.64258 348.58664,423.64307 423.64307,348.58664 423.64258,256 423.64305,167.27843 354.70932,94.701395 267.48633,88.792969 v 26.933591 c 0,3.39707 -2.17464,6.13086 -4.875,6.13086 h -13.22266 c -2.70036,0 -4.875,-2.73379 -4.875,-6.13086 z"
     style="baseline-shift:baseline;display:inline;overflow:visible;vector-effect:none;fill:#ff5f2a;enable-background:accumulate;stop-color:#000000;stop-opacity:1"
     id="path4" /><path
     d="m 249.38867,69.025391 c -2.70036,0 -4.875,2.733794 -4.875,6.130859 v 40.57031 c 0,3.39707 2.17464,6.13086 4.875,6.13086 h 13.22266 c 2.70036,0 4.875,-2.73379 4.875,-6.13086 V 75.15625 c 0,-3.397065 -2.17464,-6.130859 -4.875,-6.130859 z"
     style="baseline-shift:baseline;display:inline;overflow:visible;vector-effect:none;fill:#ffffff;stroke-linecap:round;stroke-linejoin:round;stroke-miterlimit:1;paint-order:stroke fill markers;enable-background:accumulate;stop-color:#000000;stop-opacity:1"
     id="path3" /><!-- Hokusai wave - curling crest with claw fingers dripping down --><path
     d="m 208.55791,194.9203 v 120 l 110,-60 z"
     fill="url(#brandOrange)"
     id="path9"
     style="display:inline;fill:#ffffff" /><path
     style="font-size:86.6667px;line-height:0;font-family:Outfit;-inkscape-font-specification:Outfit;text-align:center;letter-spacing:0px;word-spacing:0px;white-space:pre;fill:#ffffff;stroke-width:10;stroke-linecap:round;stroke-linejoin:round;stroke-miterlimit:1;paint-order:stroke fill markers"
     d="M 400.26685,287.50555 371.49351,256.6522 q -3.38,-3.64 -5.02667,-6.93334 -1.64667,-3.29333 -1.64667,-7.28 0,-4.59333 2.16667,-8.14667 2.16667,-3.64 5.98,-5.72 3.81334,-2.16667 8.75334,-2.16667 3.64,0 6.58667,1.21333 3.03333,1.12667 5.28667,3.03334 2.34,1.90667 3.9,4.33333 l -5.63334,5.11334 q -1.99333,-2.77333 -4.42,-4.42 -2.34,-1.73334 -5.72,-1.73334 -3.9,0 -6.5,2.34001 -2.60001,2.34 -2.60001,6.06666 0,3.12001 1.3,5.28667 1.30001,2.16667 3.90001,5.02667 l 31.98001,34.84002 z m -21.58001,0.86666 q -5.98,0 -10.48667,-2.34 -4.50667,-2.34 -7.02,-6.41333 -2.42667,-4.16001 -2.42667,-9.44667 0,-5.46001 2.94667,-9.88001 2.94667,-4.42 8.58,-7.02 l 3.72667,4.85333 q -3.46667,1.73334 -5.46,4.76667 -1.99334,2.94667 -1.99334,7.10667 0,3.38 1.56001,5.80667 1.56,2.42667 4.33333,3.81334 2.86,1.3 6.5,1.3 4.59334,0 7.80001,-1.90667 3.20666,-1.90667 4.85333,-4.85334 l 5.11334,5.98001 q -1.73334,2.34 -4.59334,4.24666 -2.77333,1.82001 -6.24,2.94667 -3.38,1.04 -7.19334,1.04 z"
     id="text28"
     aria-label="&amp;" /><rect
     style="display:inline;fill:#ffffff;fill-opacity:1;stroke:none;stroke-width:8.95971;stroke-linecap:round;stroke-linejoin:round;stroke-miterlimit:1;stroke-dasharray:none;stroke-opacity:1;paint-order:stroke fill markers"
     id="rect44"
     width="41.047508"
     height="17.84782"
     x="53.014286"
     y="341.35419"
     rx="4.7639656"
     ry="3.7869236"
     transform="rotate(-60)" /><rect
     style="display:inline;fill:#ffffff;fill-opacity:1;stroke:none;stroke-width:6.57078;stroke-linecap:round;stroke-linejoin:round;stroke-miterlimit:1;stroke-dasharray:none;stroke-opacity:1;paint-order:stroke fill markers"
     id="rect45"
     width="30.102978"
     height="13.089041"
     x="250.53232"
     y="343.65585"
     rx="3.4937456"
     ry="2.7772131"
     transform="rotate(-30)" /></svg>
